<svg xmlns="http://www.w3.org/2000/svg" width="640" height="640" viewBox="0 0 640 640" role="img" aria-label="Burger bar storefront">
  <defs>
    <filter id="shadow" x="-20%" y="-20%" width="140%" height="140%">
      <feDropShadow dx="0" dy="16" stdDeviation="14" flood-color="#0f172a" flood-opacity="0.22"/>
    </filter>
    <linearGradient id="frontWall" x1="0" y1="0" x2="0" y2="1">
      <stop offset="0" stop-color="#fb923c"/>
      <stop offset="1" stop-color="#ea580c"/>
    </linearGradient>
    <linearGradient id="awning" x1="0" y1="0" x2="1" y2="1">
      <stop offset="0" stop-color="#ef4444"/>
      <stop offset="1" stop-color="#b91c1c"/>
    </linearGradient>
  </defs>
  <g shape-rendering="crispEdges">
    <ellipse cx="320" cy="548" rx="210" ry="34" fill="#0f172a" opacity="0.12"/>
    <g filter="url(#shadow)" stroke="#15131d" stroke-width="10" stroke-linejoin="round" stroke-linecap="round">
      <rect x="92" y="484" width="456" height="66" rx="8" fill="#cbd5e1"/>
      <rect x="126" y="234" width="388" height="250" rx="16" fill="url(#frontWall)"/>
      <rect x="148" y="164" width="344" height="98" rx="14" fill="#facc15"/>
      <rect x="170" y="206" width="300" height="52" rx="10" fill="#dc2626"/>
      <text x="320" y="243" fill="#fefce8" stroke="none" font-family="Arial Black, Arial, sans-serif" font-size="42" text-anchor="middle">BURGER BAR</text>
      <g transform="translate(0 -8)">
        <path d="M256 184c0-20 29-37 64-37s64 17 64 37" fill="#f59e0b"/>
        <path d="M256 184c0-20 29-37 64-37s64 17 64 37" fill="none"/>
        <rect x="256" y="182" width="128" height="14" rx="6" fill="#22c55e"/>
        <rect x="246" y="196" width="148" height="18" rx="8" fill="#78350f"/>
        <rect x="256" y="214" width="128" height="12" rx="6" fill="#fcd34d"/>
      </g>
      <polygon points="137 256 503 256 475 318 165 318" fill="url(#awning)"/>
      <path d="M205 256 186 318" fill="none"/>
      <path d="M269 256 254 318" fill="none"/>
      <path d="M333 256 322 318" fill="none"/>
      <path d="M397 256 390 318" fill="none"/>
      <path d="M461 256 458 318" fill="none"/>
      <rect x="156" y="332" width="112" height="112" rx="10" fill="#dbeafe"/>
      <rect x="372" y="332" width="112" height="112" rx="10" fill="#dbeafe"/>
      <rect x="274" y="318" width="92" height="166" rx="10" fill="#334155"/>
      <rect x="288" y="333" width="64" height="104" rx="8" fill="#bfdbfe"/>
      <circle cx="344" cy="399" r="8" fill="#f8fafc"/>
      <rect x="148" y="448" width="125" height="36" rx="6" fill="#dc2626"/>
      <rect x="367" y="448" width="125" height="36" rx="6" fill="#dc2626"/>
      <text x="210" y="473" fill="#fef2f2" stroke="none" font-family="Arial Black, Arial, sans-serif" font-size="22" text-anchor="middle">SHAKES</text>
      <text x="430" y="473" fill="#fef2f2" stroke="none" font-family="Arial Black, Arial, sans-serif" font-size="22" text-anchor="middle">FRIES</text>
      <rect x="86" y="372" width="48" height="92" rx="8" fill="#111827"/>
      <rect x="96" y="386" width="28" height="34" rx="4" fill="#22c55e"/>
      <rect x="506" y="370" width="38" height="104" rx="8" fill="#78350f"/>
      <rect x="513" y="380" width="24" height="26" rx="4" fill="#fef3c7"/>
      <path d="M513 418 537 418" fill="none"/>
      <path d="M513 439 537 439" fill="none"/>
      <rect x="158" y="349" width="32" height="44" rx="6" fill="#f8fafc"/>
      <rect x="201" y="349" width="32" height="44" rx="6" fill="#f8fafc"/>
      <rect x="386" y="349" width="32" height="44" rx="6" fill="#f8fafc"/>
      <rect x="429" y="349" width="32" height="44" rx="6" fill="#f8fafc"/>
      <path d="M146 332 272 332" fill="none" opacity="0.15"/>
      <path d="M369 332 495 332" fill="none" opacity="0.15"/>
    </g>
  </g>
</svg>
