<svg xmlns="http://www.w3.org/2000/svg" width="640" height="640" viewBox="0 0 640 640" role="img" aria-label="Red hatchback">
  <defs>
    <filter id="shadow" x="-20%" y="-20%" width="140%" height="140%">
      <feDropShadow dx="0" dy="18" stdDeviation="14" flood-color="#0f172a" flood-opacity="0.28"/>
    </filter>
    <linearGradient id="bodyTop" x1="0" y1="0" x2="1" y2="1">
      <stop offset="0" stop-color="#ff6b6b"/>
      <stop offset="1" stop-color="#ef4444"/>
    </linearGradient>
    <linearGradient id="bodySide" x1="0" y1="0" x2="1" y2="1">
      <stop offset="0" stop-color="#ef4444"/>
      <stop offset="1" stop-color="#b91c1c"/>
    </linearGradient>
    <linearGradient id="glass" x1="0" y1="0" x2="1" y2="1">
      <stop offset="0" stop-color="#dbeafe"/>
      <stop offset="1" stop-color="#93c5fd"/>
    </linearGradient>
  </defs>
  <g shape-rendering="crispEdges">
    <ellipse cx="324" cy="520" rx="194" ry="50" fill="#0f172a" opacity="0.14"/>
    <g filter="url(#shadow)" stroke="#15131d" stroke-width="10" stroke-linejoin="round" stroke-linecap="round">
      <g transform="translate(0 8)">
        <polygon points="170 414 278 332 427 355 521 437 407 510 239 492" fill="url(#bodyTop)"/>
        <polygon points="278 332 340 285 454 303 427 355" fill="#ff8787"/>
        <polygon points="454 303 505 353 521 437 427 355" fill="#ff5a5a"/>
        <polygon points="239 492 407 510 521 437 512 468 397 541 221 524" fill="url(#bodySide)"/>
        <polygon points="170 414 239 492 221 524 154 446" fill="#c81e1e"/>
        <polygon points="314 299 360 268 419 278 384 306" fill="#1f2937"/>
        <polygon points="286 334 314 299 384 306 354 345" fill="url(#glass)"/>
        <polygon points="384 306 419 278 471 325 427 355" fill="#bfdbfe"/>
        <polygon points="257 364 284 342 353 352 324 382" fill="#bfdbfe"/>
        <polygon points="356 352 427 364 470 403 389 396" fill="#93c5fd"/>
        <polygon points="245 423 330 423 316 449 229 450" fill="#111827"/>
        <polygon points="337 423 420 423 406 448 320 449" fill="#111827"/>
        <path d="M220 447 473 444" fill="none"/>
        <path d="M296 344 265 447" fill="none"/>
        <path d="M379 352 359 453" fill="none"/>
        <path d="M454 363 448 445" fill="none"/>
        <circle cx="237" cy="468" r="51" fill="#0f172a"/>
        <circle cx="237" cy="468" r="24" fill="#94a3b8" stroke-width="8"/>
        <circle cx="432" cy="468" r="51" fill="#0f172a"/>
        <circle cx="432" cy="468" r="24" fill="#94a3b8" stroke-width="8"/>
        <circle cx="496" cy="410" r="12" fill="#fde68a"/>
        <circle cx="170" cy="438" r="12" fill="#fb7185"/>
        <rect x="307" y="433" width="46" height="13" rx="4" fill="#f8fafc"/>
        <text x="330" y="443" fill="#111827" stroke="none" font-family="Arial Black, Arial, sans-serif" font-size="10" text-anchor="middle">QLD M8</text>
        <path d="M227 403 309 344" fill="none" opacity="0.18"/>
      </g>
    </g>
  </g>
</svg>
