<svg xmlns="http://www.w3.org/2000/svg" width="640" height="640" viewBox="0 0 640 640" role="img" aria-label="Snag stand stall">
  <defs>
    <filter id="shadow" x="-20%" y="-20%" width="140%" height="140%">
      <feDropShadow dx="0" dy="16" stdDeviation="14" flood-color="#0f172a" flood-opacity="0.22"/>
    </filter>
    <linearGradient id="awning" x1="0" y1="0" x2="1" y2="1">
      <stop offset="0" stop-color="#15803d"/>
      <stop offset="1" stop-color="#166534"/>
    </linearGradient>
  </defs>
  <g shape-rendering="crispEdges">
    <ellipse cx="320" cy="547" rx="210" ry="34" fill="#0f172a" opacity="0.12"/>
    <g filter="url(#shadow)" stroke="#15131d" stroke-width="10" stroke-linejoin="round" stroke-linecap="round">
      <rect x="135" y="506" width="370" height="28" rx="6" fill="#8b5a2b"/>
      <rect x="156" y="248" width="328" height="258" rx="14" fill="#a16207"/>
      <polygon points="121 248 166 176 474 176 519 248" fill="url(#awning)"/>
      <path d="M168 176 154 248" fill="none"/>
      <path d="M229 176 219 248" fill="none"/>
      <path d="M290 176 284 248" fill="none"/>
      <path d="M351 176 349 248" fill="none"/>
      <path d="M412 176 414 248" fill="none"/>
      <path d="M473 176 479 248" fill="none"/>
      <rect x="194" y="204" width="252" height="66" rx="12" fill="#facc15"/>
      <rect x="210" y="217" width="220" height="40" rx="10" fill="#b91c1c"/>
      <text x="320" y="246" fill="#fefce8" stroke="none" font-family="Arial Black, Arial, sans-serif" font-size="36" text-anchor="middle">SNAG SHACK</text>
      <text x="320" y="269" fill="#fef3c7" stroke="none" font-family="Arial Black, Arial, sans-serif" font-size="15" text-anchor="middle">onions, sauce and a cheeky sanga</text>
      <rect x="180" y="286" width="102" height="170" rx="10" fill="#6b3f1b"/>
      <rect x="298" y="286" width="162" height="104" rx="10" fill="#6b3f1b"/>
      <rect x="298" y="405" width="162" height="75" rx="10" fill="#854d0e"/>
      <rect x="312" y="301" width="134" height="60" rx="8" fill="#111827"/>
      <rect x="320" y="309" width="118" height="44" rx="6" fill="#475569"/>
      <path d="M330 332c19-16 35-15 52 2 18-17 35-18 52-2" fill="none" stroke="#f97316"/>
      <path d="M330 346c22-16 40-16 58 0 17-16 34-16 48 0" fill="none" stroke="#fbbf24"/>
      <rect x="193" y="303" width="78" height="112" rx="8" fill="#111827"/>
      <path d="M208 322h48" fill="none" stroke="#f8fafc"/>
      <path d="M208 350h48" fill="none" stroke="#f8fafc"/>
      <path d="M208 378h48" fill="none" stroke="#f8fafc"/>
      <rect x="468" y="298" width="38" height="150" rx="8" fill="#8b5a2b"/>
      <rect x="110" y="325" width="28" height="120" rx="8" fill="#8b5a2b"/>
      <rect x="160" y="456" width="40" height="50" rx="6" fill="#8b5a2b"/>
      <rect x="438" y="456" width="40" height="50" rx="6" fill="#8b5a2b"/>
      <rect x="337" y="423" width="20" height="54" rx="6" fill="#ef4444"/>
      <rect x="366" y="414" width="20" height="63" rx="6" fill="#facc15"/>
      <rect x="395" y="429" width="20" height="48" rx="6" fill="#f8fafc"/>
      <circle cx="420" cy="437" r="16" fill="#22c55e"/>
      <circle cx="446" cy="437" r="16" fill="#f97316"/>
      <rect x="302" y="214" width="36" height="12" rx="4" fill="#fef3c7"/>
      <circle cx="326" cy="220" r="4" fill="#b91c1c"/>
    </g>
  </g>
</svg>
