<svg xmlns="http://www.w3.org/2000/svg" width="640" height="640" viewBox="0 0 640 640" role="img" aria-label="Hot chook shop">
  <defs>
    <filter id="shadow" x="-20%" y="-20%" width="140%" height="140%">
      <feDropShadow dx="0" dy="16" stdDeviation="14" flood-color="#0f172a" flood-opacity="0.22"/>
    </filter>
    <linearGradient id="chookWall" x1="0" y1="0" x2="0" y2="1">
      <stop offset="0" stop-color="#fb923c"/>
      <stop offset="1" stop-color="#dc2626"/>
    </linearGradient>
  </defs>
  <g shape-rendering="crispEdges">
    <ellipse cx="320" cy="546" rx="208" ry="36" fill="#0f172a" opacity="0.12"/>
    <g filter="url(#shadow)" stroke="#15131d" stroke-width="10" stroke-linejoin="round" stroke-linecap="round">
      <rect x="88" y="486" width="464" height="62" rx="8" fill="#d1d5db"/>
      <rect x="118" y="224" width="404" height="262" rx="16" fill="url(#chookWall)"/>
      <rect x="146" y="156" width="348" height="104" rx="16" fill="#facc15"/>
      <rect x="166" y="201" width="308" height="50" rx="10" fill="#dc2626"/>
      <text x="320" y="235" fill="#fefce8" stroke="none" font-family="Arial Black, Arial, sans-serif" font-size="40" text-anchor="middle">HOT CHOOKS</text>
      <text x="320" y="258" fill="#78350f" stroke="none" font-family="Arial Black, Arial, sans-serif" font-size="17" text-anchor="middle">fried chook, chips and gravy</text>
      <g transform="translate(0 -8)">
        <path d="M329 168c21-24 60-29 92-4 30 23 31 67 2 91-31 26-74 24-99-6-26-29-24-59 5-81Z" fill="#fef3c7"/>
        <circle cx="362" cy="193" r="8" fill="#111827" stroke="none"/>
        <path d="M372 202c16 9 31 11 47 6" fill="none"/>
        <path d="M410 180 436 162" fill="none"/>
        <path d="M416 206 447 214" fill="none"/>
        <path d="M306 174c-13-21-35-28-61-18 5 26 22 42 52 48" fill="#fef3c7"/>
        <path d="M437 174c16-23 36-29 60-20-2 24-19 41-49 50" fill="#f59e0b"/>
        <path d="M448 219c18 8 29 21 34 39-24 2-41-4-53-20l19-19Z" fill="#f59e0b"/>
      </g>
      <polygon points="137 260 503 260 481 318 159 318" fill="#b91c1c"/>
      <path d="M206 260 191 318" fill="none" opacity="0.2"/>
      <path d="M274 260 264 318" fill="none" opacity="0.2"/>
      <path d="M342 260 337 318" fill="none" opacity="0.2"/>
      <path d="M410 260 410 318" fill="none" opacity="0.2"/>
      <rect x="150" y="336" width="92" height="132" rx="10" fill="#334155"/>
      <rect x="164" y="350" width="64" height="90" rx="8" fill="#bfdbfe"/>
      <rect x="260" y="320" width="116" height="166" rx="12" fill="#334155"/>
      <rect x="276" y="338" width="84" height="116" rx="8" fill="#fef3c7"/>
      <circle cx="346" cy="406" r="8" fill="#111827" stroke="none"/>
      <rect x="394" y="336" width="94" height="132" rx="10" fill="#334155"/>
      <rect x="407" y="350" width="68" height="90" rx="8" fill="#bfdbfe"/>
      <rect x="112" y="352" width="30" height="86" rx="6" fill="#111827"/>
      <text x="127" y="382" fill="#22c55e" stroke="none" font-family="Arial Black, Arial, sans-serif" font-size="16" text-anchor="middle">OPEN</text>
      <rect x="156" y="444" width="80" height="38" rx="6" fill="#ef4444"/>
      <rect x="402" y="444" width="80" height="38" rx="6" fill="#ef4444"/>
      <text x="196" y="469" fill="#fefce8" stroke="none" font-family="Arial Black, Arial, sans-serif" font-size="18" text-anchor="middle">CHIPS</text>
      <text x="442" y="469" fill="#fefce8" stroke="none" font-family="Arial Black, Arial, sans-serif" font-size="18" text-anchor="middle">GRAVY</text>
      <rect x="512" y="332" width="30" height="134" rx="8" fill="#92400e"/>
      <rect x="517" y="344" width="20" height="22" rx="4" fill="#fef3c7"/>
      <path d="M517 380 537 380" fill="none"/>
      <path d="M517 410 537 410" fill="none"/>
    </g>
  </g>
</svg>
