<svg xmlns="http://www.w3.org/2000/svg" width="640" height="640" viewBox="0 0 640 640" role="img" aria-label="Ride-on lawn mower">
  <defs>
    <filter id="shadow" x="-20%" y="-20%" width="140%" height="140%">
      <feDropShadow dx="0" dy="18" stdDeviation="14" flood-color="#0f172a" flood-opacity="0.28"/>
    </filter>
    <linearGradient id="mowerBody" x1="0" y1="0" x2="1" y2="1">
      <stop offset="0" stop-color="#22c55e"/>
      <stop offset="1" stop-color="#166534"/>
    </linearGradient>
    <linearGradient id="mowerDeck" x1="0" y1="0" x2="1" y2="1">
      <stop offset="0" stop-color="#facc15"/>
      <stop offset="1" stop-color="#ca8a04"/>
    </linearGradient>
  </defs>
  <g shape-rendering="crispEdges">
    <ellipse cx="322" cy="522" rx="198" ry="44" fill="#0f172a" opacity="0.14"/>
    <g filter="url(#shadow)" stroke="#15131d" stroke-width="10" stroke-linejoin="round" stroke-linecap="round">
      <g transform="translate(0 8)">
        <polygon points="178 433 282 369 404 385 485 433 385 489 247 481" fill="url(#mowerBody)"/>
        <polygon points="282 369 329 322 416 336 404 385" fill="#4ade80"/>
        <polygon points="404 385 485 433 485 461 398 420" fill="#16a34a"/>
        <polygon points="247 481 385 489 485 433 470 467 372 526 219 518" fill="#15803d"/>
        <polygon points="190 451 247 481 219 518 160 488" fill="#14532d"/>
        <polygon points="222 458 322 406 377 412 279 466" fill="url(#mowerDeck)"/>
        <polygon points="250 369 294 309 354 318 321 373" fill="#111827"/>
        <polygon points="303 307 320 268 358 287 354 318" fill="#111827"/>
        <circle cx="321" cy="264" r="16" fill="#111827"/>
        <path d="M321 264 356 247" fill="none"/>
        <rect x="236" y="384" width="66" height="48" rx="8" fill="#111827"/>
        <rect x="390" y="381" width="52" height="36" rx="8" fill="#111827"/>
        <rect x="414" y="346" width="35" height="40" rx="6" fill="#f8fafc"/>
        <rect x="202" y="444" width="72" height="18" rx="6" fill="#7c2d12"/>
        <text x="238" y="458" fill="#fef3c7" stroke="none" font-family="Arial Black, Arial, sans-serif" font-size="13" text-anchor="middle">MOW</text>
        <circle cx="221" cy="472" r="40" fill="#0f172a"/>
        <circle cx="221" cy="472" r="18" fill="#94a3b8" stroke-width="8"/>
        <circle cx="414" cy="469" r="56" fill="#0f172a"/>
        <circle cx="414" cy="469" r="27" fill="#94a3b8" stroke-width="8"/>
        <circle cx="478" cy="432" r="12" fill="#fde68a"/>
        <circle cx="169" cy="468" r="11" fill="#ef4444"/>
        <path d="M308 345 376 356" fill="none" opacity="0.18"/>
        <path d="M226 451 281 420" fill="none" opacity="0.12"/>
        <path d="M487 461c16 9 26 20 32 36-24 1-42-4-52-16l20-20Z" fill="#22c55e"/>
      </g>
    </g>
  </g>
</svg>
