<svg xmlns="http://www.w3.org/2000/svg" width="640" height="640" viewBox="0 0 640 640" role="img" aria-label="Running bloke in singlet">
  <defs>
    <filter id="shadow" x="-20%" y="-20%" width="140%" height="140%">
      <feDropShadow dx="0" dy="14" stdDeviation="12" flood-color="#0f172a" flood-opacity="0.22"/>
    </filter>
  </defs>
  <g>
    <ellipse cx="316" cy="520" rx="154" ry="34" fill="#0f172a" opacity="0.14"/>
    <g filter="url(#shadow)" stroke="#111827" stroke-width="12" stroke-linecap="round" stroke-linejoin="round">
      <g transform="translate(8 10)">
        <path d="M280 170c34-18 82-6 98 32 15 35 0 74-34 94-35 20-82 8-101-30-19-38-2-78 37-96Z" fill="#f7c59a"/>
        <path d="M248 197c4-47 47-83 95-83 39 0 74 22 90 54l-42 22-24-18-19 20-72 6-28 38-51-18 20-21Z" fill="#5b2d16"/>
        <path d="M353 234c18 7 26 18 28 35-20 11-37 8-49-9l21-26Z" fill="#f7c59a"/>
        <circle cx="381" cy="233" r="8" fill="#111827" stroke="none"/>
        <path d="M388 254c-12 9-24 9-36 0" fill="none"/>
        <path d="M250 222c18 34 45 51 81 57l-20 28c-52-3-90-32-110-81l49-4Z" fill="#f7c59a"/>
        <path d="M294 301 348 281 426 338 398 402 320 401 283 342Z" fill="#facc15"/>
        <path d="M284 340 361 342 378 401 320 401" fill="#15803d"/>
        <path d="M318 308 369 295" fill="none" opacity="0.16"/>
        <path d="M277 319 241 377 205 364 231 287 294 302Z" fill="#f7c59a"/>
        <path d="M217 368 185 352 171 390 211 410 231 377" fill="#f7c59a"/>
        <path d="M171 390 195 402" fill="none"/>
        <path d="M329 397 393 399 425 487 372 500 319 442Z" fill="#1976d2"/>
        <path d="M320 401 276 427 208 514 260 530 323 462 346 420" fill="#1976d2"/>
        <path d="M371 500 434 497 436 530 365 534" fill="#ffffff"/>
        <path d="M257 530 195 523 191 554 260 562" fill="#ffffff"/>
        <path d="M365 534 451 531 448 566 355 574" fill="#7c4a21"/>
        <path d="M260 562 145 556 142 590 248 592 273 578" fill="#7c4a21"/>
        <path d="M451 531 473 544 470 564 448 566" fill="#5b2d16"/>
        <path d="M142 590 122 580 121 560 145 556" fill="#5b2d16"/>
        <path d="M276 427 232 404 217 453 208 514" fill="#145ea8"/>
        <path d="M404 414 450 388 477 455 425 487" fill="#f7c59a"/>
        <path d="M450 388 479 404 487 452 477 455" fill="#f7c59a"/>
        <path d="M485 453c22 10 38 26 47 46-32 4-57-1-73-15l26-31Z" fill="#f7c59a"/>
        <path d="M315 299 352 337 404 345 426 338 376 289" fill="#f59e0b"/>
        <path d="M303 316 268 350" fill="none" opacity="0.18"/>
        <path d="M228 506 258 472" fill="none" opacity="0.15"/>
      </g>
    </g>
  </g>
</svg>
