<svg xmlns="http://www.w3.org/2000/svg" width="640" height="640" viewBox="0 0 640 640" role="img" aria-label="Australian servo shop">
  <defs>
    <filter id="shadow" x="-20%" y="-20%" width="140%" height="140%">
      <feDropShadow dx="0" dy="16" stdDeviation="14" flood-color="#0f172a" flood-opacity="0.22"/>
    </filter>
    <linearGradient id="roof" x1="0" y1="0" x2="1" y2="1">
      <stop offset="0" stop-color="#22c55e"/>
      <stop offset="1" stop-color="#166534"/>
    </linearGradient>
  </defs>
  <g shape-rendering="crispEdges">
    <ellipse cx="320" cy="546" rx="206" ry="34" fill="#0f172a" opacity="0.12"/>
    <g filter="url(#shadow)" stroke="#15131d" stroke-width="10" stroke-linejoin="round" stroke-linecap="round">
      <rect x="98" y="482" width="444" height="68" rx="8" fill="#cbd5e1"/>
      <rect x="126" y="214" width="388" height="268" rx="16" fill="#fb923c"/>
      <polygon points="106 214 157 150 483 150 534 214" fill="url(#roof)"/>
      <rect x="152" y="178" width="336" height="78" rx="12" fill="#f8fafc"/>
      <rect x="152" y="178" width="336" height="18" rx="8" fill="#15803d"/>
      <rect x="152" y="196" width="336" height="16" fill="#f97316"/>
      <rect x="152" y="212" width="336" height="12" fill="#dc2626"/>
      <rect x="188" y="196" width="264" height="46" rx="10" fill="#facc15"/>
      <text x="320" y="228" fill="#111827" stroke="none" font-family="Arial Black, Arial, sans-serif" font-size="38" text-anchor="middle">SERVO MART</text>
      <text x="474" y="229" fill="#111827" stroke="none" font-family="Arial Black, Arial, sans-serif" font-size="20" text-anchor="middle">24H</text>
      <rect x="146" y="278" width="98" height="136" rx="10" fill="#dbeafe"/>
      <rect x="262" y="266" width="116" height="216" rx="12" fill="#334155"/>
      <rect x="278" y="282" width="84" height="146" rx="8" fill="#bfdbfe"/>
      <path d="M320 266 320 482" fill="none"/>
      <circle cx="334" cy="395" r="8" fill="#f8fafc" stroke="none"/>
      <rect x="396" y="278" width="98" height="136" rx="10" fill="#dbeafe"/>
      <path d="M146 325 244 325" fill="none" opacity="0.16"/>
      <path d="M396 325 494 325" fill="none" opacity="0.16"/>
      <rect x="103" y="304" width="30" height="120" rx="8" fill="#dc2626"/>
      <rect x="102" y="285" width="32" height="26" rx="6" fill="#111827"/>
      <text x="118" y="303" fill="#f8fafc" stroke="none" font-family="Arial Black, Arial, sans-serif" font-size="12" text-anchor="middle">OPEN</text>
      <rect x="144" y="432" width="104" height="50" rx="8" fill="#1d4ed8"/>
      <rect x="159" y="444" width="22" height="26" rx="4" fill="#f8fafc"/>
      <rect x="186" y="444" width="22" height="26" rx="4" fill="#f8fafc"/>
      <rect x="213" y="444" width="22" height="26" rx="4" fill="#f8fafc"/>
      <rect x="405" y="430" width="78" height="52" rx="8" fill="#854d0e"/>
      <rect x="420" y="442" width="48" height="28" rx="6" fill="#fef3c7"/>
      <text x="444" y="462" fill="#92400e" stroke="none" font-family="Arial Black, Arial, sans-serif" font-size="12" text-anchor="middle">PIES</text>
      <rect x="500" y="356" width="34" height="92" rx="8" fill="#94a3b8"/>
      <rect x="507" y="368" width="20" height="50" rx="4" fill="#22c55e"/>
      <rect x="518" y="427" width="6" height="15" fill="#1f2937"/>
      <path d="M165 296 224 296" fill="none" opacity="0.12"/>
    </g>
  </g>
</svg>
