<svg xmlns="http://www.w3.org/2000/svg" width="640" height="640" viewBox="0 0 640 640" role="img" aria-label="Isometric yellow taxi">
  <defs>
    <filter id="shadow" x="-20%" y="-20%" width="140%" height="140%">
      <feDropShadow dx="0" dy="18" stdDeviation="14" flood-color="#0f172a" flood-opacity="0.28"/>
    </filter>
    <linearGradient id="taxiRoof" x1="0" y1="0" x2="1" y2="1">
      <stop offset="0" stop-color="#ffe27a"/>
      <stop offset="1" stop-color="#f8c63d"/>
    </linearGradient>
    <linearGradient id="taxiBody" x1="0" y1="0" x2="1" y2="1">
      <stop offset="0" stop-color="#ffd84f"/>
      <stop offset="1" stop-color="#f2a900"/>
    </linearGradient>
    <linearGradient id="taxiSide" x1="0" y1="0" x2="1" y2="1">
      <stop offset="0" stop-color="#e6a600"/>
      <stop offset="1" stop-color="#b67500"/>
    </linearGradient>
  </defs>
  <g shape-rendering="crispEdges">
    <ellipse cx="325" cy="515" rx="190" ry="52" fill="#0f172a" opacity="0.14"/>
    <g filter="url(#shadow)" stroke="#15131d" stroke-width="10" stroke-linejoin="round" stroke-linecap="round">
      <g transform="translate(0 8)">
        <polygon points="178 412 282 334 430 356 522 438 408 508 243 491" fill="url(#taxiBody)"/>
        <polygon points="282 334 345 285 456 304 430 356" fill="url(#taxiRoof)"/>
        <polygon points="456 304 510 356 522 438 430 356" fill="#ffcf48"/>
        <polygon points="243 491 408 508 519 439 512 468 400 540 226 523" fill="url(#taxiSide)"/>
        <polygon points="178 412 243 491 226 523 158 444" fill="#cc8c00"/>
        <polygon points="320 300 366 268 425 279 390 306" fill="#1f2937"/>
        <polygon points="288 336 320 300 390 306 360 344" fill="#dbeafe"/>
        <polygon points="390 306 425 279 474 326 430 356" fill="#bfdbfe"/>
        <polygon points="259 364 286 342 357 352 329 382" fill="#bfdbfe"/>
        <polygon points="361 352 431 363 474 403 394 396" fill="#93c5fd"/>
        <path d="M219 449 476 444" fill="none"/>
        <path d="M297 343 266 447" fill="none"/>
        <path d="M379 352 359 452" fill="none"/>
        <path d="M454 364 447 447" fill="none"/>
        <polygon points="246 425 330 424 314 450 228 451" fill="#111827"/>
        <polygon points="337 424 420 424 405 449 321 450" fill="#111827"/>
        <rect x="309" y="292" width="58" height="25" rx="8" fill="#111827"/>
        <text x="338" y="310" fill="#f8fafc" stroke="none" font-family="Arial Black, Arial, sans-serif" font-size="18" text-anchor="middle">TAXI</text>
        <g fill="#111827" stroke-width="6">
          <rect x="247" y="429" width="11" height="14"/>
          <rect x="264" y="429" width="11" height="14"/>
          <rect x="281" y="429" width="11" height="14"/>
          <rect x="298" y="429" width="11" height="14"/>
          <rect x="343" y="429" width="11" height="14"/>
          <rect x="360" y="429" width="11" height="14"/>
          <rect x="377" y="429" width="11" height="14"/>
          <rect x="394" y="429" width="11" height="14"/>
        </g>
        <circle cx="236" cy="468" r="51" fill="#0f172a"/>
        <circle cx="236" cy="468" r="24" fill="#94a3b8" stroke-width="8"/>
        <circle cx="432" cy="468" r="51" fill="#0f172a"/>
        <circle cx="432" cy="468" r="24" fill="#94a3b8" stroke-width="8"/>
        <path d="M181 414 242 382" fill="none"/>
        <path d="M462 406 512 436" fill="none"/>
        <circle cx="497" cy="412" r="13" fill="#fde68a"/>
        <circle cx="171" cy="438" r="13" fill="#fb7185"/>
        <path d="M221 404 312 343" fill="none" opacity="0.25"/>
        <path d="M240 389 404 410" fill="none" opacity="0.2"/>
      </g>
    </g>
  </g>
</svg>
